<mxfile host="app.diagrams.net" agent="Mozilla/5.0 (Windows NT 10.0; Win64; x64) AppleWebKit/537.36 (KHTML, like Gecko) Chrome/134.0.0.0 Safari/537.36 OPR/119.0.0.0" version="27.1.1">
  <diagram name="Страница — 1" id="opip3V4LIdFG4Yo0QK7u">
    <mxGraphModel dx="2111" dy="1145" grid="0" gridSize="10" guides="1" tooltips="1" connect="1" arrows="1" fold="1" page="1" pageScale="1" pageWidth="827" pageHeight="1169" background="light-dark(#FFFFFF,#FFFFFF)" math="0" shadow="0">
      <root>
        <mxCell id="0" />
        <mxCell id="1" parent="0" />
        <mxCell id="cEvRSIqXZ4WbzLf_VLH3-2" value="Заказ клиента (начало)" style="swimlane;html=1;childLayout=stackLayout;resizeParent=1;resizeParentMax=0;horizontal=1;startSize=20;horizontalStack=0;whiteSpace=wrap;" parent="1" vertex="1">
          <mxGeometry x="209" y="147" width="2924" height="1066" as="geometry" />
        </mxCell>
        <mxCell id="cEvRSIqXZ4WbzLf_VLH3-4" value="Координатор ОП" style="swimlane;html=1;startSize=20;horizontal=0;" parent="cEvRSIqXZ4WbzLf_VLH3-2" vertex="1">
          <mxGeometry y="20" width="2924" height="263" as="geometry" />
        </mxCell>
        <mxCell id="cEvRSIqXZ4WbzLf_VLH3-6" value="Сайт" style="points=[[0.145,0.145,0],[0.5,0,0],[0.855,0.145,0],[1,0.5,0],[0.855,0.855,0],[0.5,1,0],[0.145,0.855,0],[0,0.5,0]];shape=mxgraph.bpmn.event;html=1;verticalLabelPosition=bottom;labelBackgroundColor=#ffffff;verticalAlign=top;align=center;perimeter=ellipsePerimeter;outlineConnect=0;aspect=fixed;outline=standard;symbol=message;fillColor=#d5e8d4;strokeColor=#82b366;" parent="cEvRSIqXZ4WbzLf_VLH3-4" vertex="1">
          <mxGeometry x="56" y="63" width="50" height="50" as="geometry" />
        </mxCell>
        <mxCell id="42vEQWu17NEXKYtsey43-4" value="Почта" style="points=[[0.145,0.145,0],[0.5,0,0],[0.855,0.145,0],[1,0.5,0],[0.855,0.855,0],[0.5,1,0],[0.145,0.855,0],[0,0.5,0]];shape=mxgraph.bpmn.event;html=1;verticalLabelPosition=bottom;labelBackgroundColor=#ffffff;verticalAlign=top;align=center;perimeter=ellipsePerimeter;outlineConnect=0;aspect=fixed;outline=standard;symbol=message;fillColor=#d5e8d4;strokeColor=#82b366;" vertex="1" parent="cEvRSIqXZ4WbzLf_VLH3-4">
          <mxGeometry x="56" y="150" width="50" height="50" as="geometry" />
        </mxCell>
        <mxCell id="42vEQWu17NEXKYtsey43-9" value="Обработать сообщение в CRM" style="points=[[0.25,0,0],[0.5,0,0],[0.75,0,0],[1,0.25,0],[1,0.5,0],[1,0.75,0],[0.75,1,0],[0.5,1,0],[0.25,1,0],[0,0.75,0],[0,0.5,0],[0,0.25,0]];shape=mxgraph.bpmn.task2;whiteSpace=wrap;rectStyle=rounded;size=10;html=1;container=1;expand=0;collapsible=0;taskMarker=user;fillColor=#fff2cc;strokeColor=#d6b656;" vertex="1" parent="cEvRSIqXZ4WbzLf_VLH3-4">
          <mxGeometry x="274" y="91.5" width="120" height="80" as="geometry" />
        </mxCell>
        <mxCell id="42vEQWu17NEXKYtsey43-10" style="edgeStyle=orthogonalEdgeStyle;rounded=0;orthogonalLoop=1;jettySize=auto;html=1;entryX=0;entryY=0.5;entryDx=0;entryDy=0;entryPerimeter=0;" edge="1" parent="cEvRSIqXZ4WbzLf_VLH3-4" source="cEvRSIqXZ4WbzLf_VLH3-6" target="42vEQWu17NEXKYtsey43-9">
          <mxGeometry relative="1" as="geometry" />
        </mxCell>
        <mxCell id="42vEQWu17NEXKYtsey43-11" style="edgeStyle=orthogonalEdgeStyle;rounded=0;orthogonalLoop=1;jettySize=auto;html=1;entryX=0;entryY=0.5;entryDx=0;entryDy=0;entryPerimeter=0;" edge="1" parent="cEvRSIqXZ4WbzLf_VLH3-4" source="42vEQWu17NEXKYtsey43-4" target="42vEQWu17NEXKYtsey43-9">
          <mxGeometry relative="1" as="geometry" />
        </mxCell>
        <mxCell id="cEvRSIqXZ4WbzLf_VLH3-5" value="Менееджер" style="swimlane;html=1;startSize=20;horizontal=0;" parent="cEvRSIqXZ4WbzLf_VLH3-2" vertex="1">
          <mxGeometry y="283" width="2924" height="421" as="geometry" />
        </mxCell>
        <mxCell id="42vEQWu17NEXKYtsey43-1" value="Холодный звонок" style="points=[[0.145,0.145,0],[0.5,0,0],[0.855,0.145,0],[1,0.5,0],[0.855,0.855,0],[0.5,1,0],[0.145,0.855,0],[0,0.5,0]];shape=mxgraph.bpmn.event;html=1;verticalLabelPosition=bottom;labelBackgroundColor=#ffffff;verticalAlign=top;align=center;perimeter=ellipsePerimeter;outlineConnect=0;aspect=fixed;outline=standard;symbol=general;fillColor=#d5e8d4;strokeColor=#82b366;" vertex="1" parent="cEvRSIqXZ4WbzLf_VLH3-5">
          <mxGeometry x="66" y="7" width="50" height="50" as="geometry" />
        </mxCell>
        <mxCell id="42vEQWu17NEXKYtsey43-2" value="Работа с базой" style="points=[[0.145,0.145,0],[0.5,0,0],[0.855,0.145,0],[1,0.5,0],[0.855,0.855,0],[0.5,1,0],[0.145,0.855,0],[0,0.5,0]];shape=mxgraph.bpmn.event;html=1;verticalLabelPosition=bottom;labelBackgroundColor=#ffffff;verticalAlign=top;align=center;perimeter=ellipsePerimeter;outlineConnect=0;aspect=fixed;outline=standard;symbol=general;fillColor=#d5e8d4;strokeColor=#82b366;" vertex="1" parent="cEvRSIqXZ4WbzLf_VLH3-5">
          <mxGeometry x="66" y="102" width="50" height="50" as="geometry" />
        </mxCell>
        <mxCell id="42vEQWu17NEXKYtsey43-3" value="Месенджер" style="points=[[0.145,0.145,0],[0.5,0,0],[0.855,0.145,0],[1,0.5,0],[0.855,0.855,0],[0.5,1,0],[0.145,0.855,0],[0,0.5,0]];shape=mxgraph.bpmn.event;html=1;verticalLabelPosition=bottom;labelBackgroundColor=#ffffff;verticalAlign=top;align=center;perimeter=ellipsePerimeter;outlineConnect=0;aspect=fixed;outline=standard;symbol=general;fillColor=#d5e8d4;strokeColor=#82b366;" vertex="1" parent="cEvRSIqXZ4WbzLf_VLH3-5">
          <mxGeometry x="66" y="183" width="50" height="50" as="geometry" />
        </mxCell>
        <mxCell id="42vEQWu17NEXKYtsey43-12" value="Зафиксировать событие в CRM" style="points=[[0.25,0,0],[0.5,0,0],[0.75,0,0],[1,0.25,0],[1,0.5,0],[1,0.75,0],[0.75,1,0],[0.5,1,0],[0.25,1,0],[0,0.75,0],[0,0.5,0],[0,0.25,0]];shape=mxgraph.bpmn.task2;whiteSpace=wrap;rectStyle=rounded;size=10;html=1;container=1;expand=0;collapsible=0;taskMarker=user;fillColor=#fff2cc;strokeColor=#d6b656;" vertex="1" parent="cEvRSIqXZ4WbzLf_VLH3-5">
          <mxGeometry x="276" y="87" width="120" height="80" as="geometry" />
        </mxCell>
        <mxCell id="42vEQWu17NEXKYtsey43-13" style="edgeStyle=orthogonalEdgeStyle;rounded=0;orthogonalLoop=1;jettySize=auto;html=1;entryX=0;entryY=0.5;entryDx=0;entryDy=0;entryPerimeter=0;" edge="1" parent="cEvRSIqXZ4WbzLf_VLH3-5" source="42vEQWu17NEXKYtsey43-1" target="42vEQWu17NEXKYtsey43-12">
          <mxGeometry relative="1" as="geometry" />
        </mxCell>
        <mxCell id="42vEQWu17NEXKYtsey43-14" style="edgeStyle=orthogonalEdgeStyle;rounded=0;orthogonalLoop=1;jettySize=auto;html=1;entryX=0;entryY=0.5;entryDx=0;entryDy=0;entryPerimeter=0;" edge="1" parent="cEvRSIqXZ4WbzLf_VLH3-5" source="42vEQWu17NEXKYtsey43-2" target="42vEQWu17NEXKYtsey43-12">
          <mxGeometry relative="1" as="geometry" />
        </mxCell>
        <mxCell id="42vEQWu17NEXKYtsey43-15" style="edgeStyle=orthogonalEdgeStyle;rounded=0;orthogonalLoop=1;jettySize=auto;html=1;entryX=0;entryY=0.5;entryDx=0;entryDy=0;entryPerimeter=0;" edge="1" parent="cEvRSIqXZ4WbzLf_VLH3-5" source="42vEQWu17NEXKYtsey43-3" target="42vEQWu17NEXKYtsey43-12">
          <mxGeometry relative="1" as="geometry" />
        </mxCell>
        <mxCell id="42vEQWu17NEXKYtsey43-22" style="edgeStyle=orthogonalEdgeStyle;rounded=0;orthogonalLoop=1;jettySize=auto;html=1;" edge="1" parent="cEvRSIqXZ4WbzLf_VLH3-5" source="42vEQWu17NEXKYtsey43-30" target="42vEQWu17NEXKYtsey43-21">
          <mxGeometry relative="1" as="geometry" />
        </mxCell>
        <mxCell id="42vEQWu17NEXKYtsey43-16" value="Создать Интерес в CRM" style="points=[[0.25,0,0],[0.5,0,0],[0.75,0,0],[1,0.25,0],[1,0.5,0],[1,0.75,0],[0.75,1,0],[0.5,1,0],[0.25,1,0],[0,0.75,0],[0,0.5,0],[0,0.25,0]];shape=mxgraph.bpmn.task2;whiteSpace=wrap;rectStyle=rounded;size=10;html=1;container=1;expand=0;collapsible=0;taskMarker=user;fillColor=light-dark(#ffff00, #212100);strokeColor=#36393d;" vertex="1" parent="cEvRSIqXZ4WbzLf_VLH3-5">
          <mxGeometry x="514" y="87" width="120" height="80" as="geometry" />
        </mxCell>
        <mxCell id="42vEQWu17NEXKYtsey43-19" style="edgeStyle=orthogonalEdgeStyle;rounded=0;orthogonalLoop=1;jettySize=auto;html=1;" edge="1" parent="cEvRSIqXZ4WbzLf_VLH3-5" source="42vEQWu17NEXKYtsey43-17" target="42vEQWu17NEXKYtsey43-16">
          <mxGeometry relative="1" as="geometry" />
        </mxCell>
        <mxCell id="42vEQWu17NEXKYtsey43-17" value="" style="points=[[0.25,0.25,0],[0.5,0,0],[0.75,0.25,0],[1,0.5,0],[0.75,0.75,0],[0.5,1,0],[0.25,0.75,0],[0,0.5,0]];shape=mxgraph.bpmn.gateway2;html=1;verticalLabelPosition=bottom;labelBackgroundColor=#ffffff;verticalAlign=top;align=center;perimeter=rhombusPerimeter;outlineConnect=0;outline=none;symbol=none;gwType=exclusive;" vertex="1" parent="cEvRSIqXZ4WbzLf_VLH3-5">
          <mxGeometry x="430" y="102" width="50" height="50" as="geometry" />
        </mxCell>
        <mxCell id="42vEQWu17NEXKYtsey43-18" style="edgeStyle=orthogonalEdgeStyle;rounded=0;orthogonalLoop=1;jettySize=auto;html=1;entryX=0;entryY=0.5;entryDx=0;entryDy=0;entryPerimeter=0;" edge="1" parent="cEvRSIqXZ4WbzLf_VLH3-5" source="42vEQWu17NEXKYtsey43-12" target="42vEQWu17NEXKYtsey43-17">
          <mxGeometry relative="1" as="geometry" />
        </mxCell>
        <mxCell id="42vEQWu17NEXKYtsey43-24" style="edgeStyle=orthogonalEdgeStyle;rounded=0;orthogonalLoop=1;jettySize=auto;html=1;exitX=0.5;exitY=1;exitDx=0;exitDy=0;exitPerimeter=0;" edge="1" parent="cEvRSIqXZ4WbzLf_VLH3-5" source="42vEQWu17NEXKYtsey43-21" target="42vEQWu17NEXKYtsey43-23">
          <mxGeometry relative="1" as="geometry">
            <Array as="points">
              <mxPoint x="793" y="293" />
            </Array>
          </mxGeometry>
        </mxCell>
        <mxCell id="42vEQWu17NEXKYtsey43-78" style="edgeStyle=orthogonalEdgeStyle;rounded=0;orthogonalLoop=1;jettySize=auto;html=1;" edge="1" parent="cEvRSIqXZ4WbzLf_VLH3-5" source="42vEQWu17NEXKYtsey43-21" target="42vEQWu17NEXKYtsey43-36">
          <mxGeometry relative="1" as="geometry" />
        </mxCell>
        <mxCell id="42vEQWu17NEXKYtsey43-79" value="Нет" style="edgeLabel;html=1;align=center;verticalAlign=middle;resizable=0;points=[];" vertex="1" connectable="0" parent="42vEQWu17NEXKYtsey43-78">
          <mxGeometry x="-0.8371" y="1" relative="1" as="geometry">
            <mxPoint as="offset" />
          </mxGeometry>
        </mxCell>
        <mxCell id="42vEQWu17NEXKYtsey43-21" value="Нужна дополнительная&lt;div&gt;информация?&lt;/div&gt;" style="points=[[0.25,0.25,0],[0.5,0,0],[0.75,0.25,0],[1,0.5,0],[0.75,0.75,0],[0.5,1,0],[0.25,0.75,0],[0,0.5,0]];shape=mxgraph.bpmn.gateway2;html=1;verticalLabelPosition=bottom;labelBackgroundColor=#ffffff;verticalAlign=top;align=center;perimeter=rhombusPerimeter;outlineConnect=0;outline=none;symbol=none;gwType=exclusive;" vertex="1" parent="cEvRSIqXZ4WbzLf_VLH3-5">
          <mxGeometry x="768" y="102" width="50" height="50" as="geometry" />
        </mxCell>
        <mxCell id="42vEQWu17NEXKYtsey43-28" style="edgeStyle=orthogonalEdgeStyle;rounded=0;orthogonalLoop=1;jettySize=auto;html=1;" edge="1" parent="cEvRSIqXZ4WbzLf_VLH3-5" source="42vEQWu17NEXKYtsey43-23" target="42vEQWu17NEXKYtsey43-27">
          <mxGeometry relative="1" as="geometry" />
        </mxCell>
        <mxCell id="42vEQWu17NEXKYtsey43-23" value="Запланировать встречу в CRM" style="points=[[0.25,0,0],[0.5,0,0],[0.75,0,0],[1,0.25,0],[1,0.5,0],[1,0.75,0],[0.75,1,0],[0.5,1,0],[0.25,1,0],[0,0.75,0],[0,0.5,0],[0,0.25,0]];shape=mxgraph.bpmn.task2;whiteSpace=wrap;rectStyle=rounded;size=10;html=1;container=1;expand=0;collapsible=0;taskMarker=user;fillColor=light-dark(#ffff00, #212100);strokeColor=#36393d;" vertex="1" parent="cEvRSIqXZ4WbzLf_VLH3-5">
          <mxGeometry x="856" y="253" width="120" height="80" as="geometry" />
        </mxCell>
        <mxCell id="42vEQWu17NEXKYtsey43-80" style="edgeStyle=orthogonalEdgeStyle;rounded=0;orthogonalLoop=1;jettySize=auto;html=1;" edge="1" parent="cEvRSIqXZ4WbzLf_VLH3-5" source="42vEQWu17NEXKYtsey43-27" target="42vEQWu17NEXKYtsey43-30">
          <mxGeometry relative="1" as="geometry">
            <Array as="points">
              <mxPoint x="1230" y="293" />
              <mxPoint x="1230" y="387" />
              <mxPoint x="674" y="387" />
            </Array>
          </mxGeometry>
        </mxCell>
        <mxCell id="42vEQWu17NEXKYtsey43-27" value="Провел встречу" style="points=[[0.25,0,0],[0.5,0,0],[0.75,0,0],[1,0.25,0],[1,0.5,0],[1,0.75,0],[0.75,1,0],[0.5,1,0],[0.25,1,0],[0,0.75,0],[0,0.5,0],[0,0.25,0]];shape=mxgraph.bpmn.task2;whiteSpace=wrap;rectStyle=rounded;size=10;html=1;container=1;expand=0;collapsible=0;taskMarker=user;fillColor=light-dark(#ffff00, #212100);strokeColor=#36393d;" vertex="1" parent="cEvRSIqXZ4WbzLf_VLH3-5">
          <mxGeometry x="1065" y="253" width="120" height="80" as="geometry" />
        </mxCell>
        <mxCell id="42vEQWu17NEXKYtsey43-30" value="" style="points=[[0.25,0.25,0],[0.5,0,0],[0.75,0.25,0],[1,0.5,0],[0.75,0.75,0],[0.5,1,0],[0.25,0.75,0],[0,0.5,0]];shape=mxgraph.bpmn.gateway2;html=1;verticalLabelPosition=bottom;labelBackgroundColor=#ffffff;verticalAlign=top;align=center;perimeter=rhombusPerimeter;outlineConnect=0;outline=none;symbol=none;gwType=exclusive;" vertex="1" parent="cEvRSIqXZ4WbzLf_VLH3-5">
          <mxGeometry x="649" y="102" width="50" height="50" as="geometry" />
        </mxCell>
        <mxCell id="42vEQWu17NEXKYtsey43-32" value="" style="edgeStyle=orthogonalEdgeStyle;rounded=0;orthogonalLoop=1;jettySize=auto;html=1;" edge="1" parent="cEvRSIqXZ4WbzLf_VLH3-5" source="42vEQWu17NEXKYtsey43-16" target="42vEQWu17NEXKYtsey43-30">
          <mxGeometry relative="1" as="geometry">
            <mxPoint x="843" y="1044" as="sourcePoint" />
            <mxPoint x="934" y="1044" as="targetPoint" />
          </mxGeometry>
        </mxCell>
        <mxCell id="42vEQWu17NEXKYtsey43-48" style="edgeStyle=orthogonalEdgeStyle;rounded=0;orthogonalLoop=1;jettySize=auto;html=1;" edge="1" parent="cEvRSIqXZ4WbzLf_VLH3-5" source="42vEQWu17NEXKYtsey43-36" target="42vEQWu17NEXKYtsey43-47">
          <mxGeometry relative="1" as="geometry" />
        </mxCell>
        <mxCell id="42vEQWu17NEXKYtsey43-36" value="Выставляем счет в CRM" style="points=[[0.25,0,0],[0.5,0,0],[0.75,0,0],[1,0.25,0],[1,0.5,0],[1,0.75,0],[0.75,1,0],[0.5,1,0],[0.25,1,0],[0,0.75,0],[0,0.5,0],[0,0.25,0]];shape=mxgraph.bpmn.task2;whiteSpace=wrap;rectStyle=rounded;size=10;html=1;container=1;expand=0;collapsible=0;taskMarker=user;fillColor=light-dark(#ffff00, #212100);strokeColor=default;" vertex="1" parent="cEvRSIqXZ4WbzLf_VLH3-5">
          <mxGeometry x="1310" y="87" width="120" height="80" as="geometry" />
        </mxCell>
        <mxCell id="42vEQWu17NEXKYtsey43-41" style="edgeStyle=orthogonalEdgeStyle;rounded=0;orthogonalLoop=1;jettySize=auto;html=1;curved=1;dashed=1;entryX=0.797;entryY=0.002;entryDx=0;entryDy=0;entryPerimeter=0;endArrow=none;startFill=0;" edge="1" parent="cEvRSIqXZ4WbzLf_VLH3-5" source="42vEQWu17NEXKYtsey43-38" target="42vEQWu17NEXKYtsey43-36">
          <mxGeometry relative="1" as="geometry" />
        </mxCell>
        <mxCell id="42vEQWu17NEXKYtsey43-38" value="-Оформление&amp;nbsp;&lt;span style=&quot;background-color: transparent; color: light-dark(rgb(0, 0, 0), rgb(255, 255, 255));&quot;&gt;Заказа Клиента в 1С&lt;/span&gt;" style="html=1;shape=mxgraph.flowchart.annotation_2;align=left;labelPosition=right;" vertex="1" parent="cEvRSIqXZ4WbzLf_VLH3-5">
          <mxGeometry x="1474" y="15.5" width="26" height="16.5" as="geometry" />
        </mxCell>
        <mxCell id="42vEQWu17NEXKYtsey43-42" value="Согласование условий и сроков" style="html=1;shape=mxgraph.flowchart.annotation_2;align=left;labelPosition=right;" vertex="1" parent="cEvRSIqXZ4WbzLf_VLH3-5">
          <mxGeometry x="1236" y="193" width="18" height="22" as="geometry" />
        </mxCell>
        <mxCell id="42vEQWu17NEXKYtsey43-43" style="edgeStyle=orthogonalEdgeStyle;rounded=0;orthogonalLoop=1;jettySize=auto;html=1;entryX=0.75;entryY=0;entryDx=0;entryDy=0;entryPerimeter=0;endArrow=none;startFill=0;curved=1;dashed=1;" edge="1" parent="cEvRSIqXZ4WbzLf_VLH3-5" source="42vEQWu17NEXKYtsey43-42" target="42vEQWu17NEXKYtsey43-27">
          <mxGeometry relative="1" as="geometry" />
        </mxCell>
        <mxCell id="42vEQWu17NEXKYtsey43-50" style="edgeStyle=orthogonalEdgeStyle;rounded=0;orthogonalLoop=1;jettySize=auto;html=1;entryX=0;entryY=0.5;entryDx=0;entryDy=0;entryPerimeter=0;" edge="1" parent="cEvRSIqXZ4WbzLf_VLH3-5" source="42vEQWu17NEXKYtsey43-45" target="42vEQWu17NEXKYtsey43-54">
          <mxGeometry relative="1" as="geometry">
            <mxPoint x="1803" y="127" as="targetPoint" />
          </mxGeometry>
        </mxCell>
        <mxCell id="42vEQWu17NEXKYtsey43-45" value="Установить график оплаты" style="points=[[0.25,0,0],[0.5,0,0],[0.75,0,0],[1,0.25,0],[1,0.5,0],[1,0.75,0],[0.75,1,0],[0.5,1,0],[0.25,1,0],[0,0.75,0],[0,0.5,0],[0,0.25,0]];shape=mxgraph.bpmn.task2;whiteSpace=wrap;rectStyle=rounded;size=10;html=1;container=1;expand=0;collapsible=0;taskMarker=user;fillColor=light-dark(#ffff00, #212100);strokeColor=default;" vertex="1" parent="cEvRSIqXZ4WbzLf_VLH3-5">
          <mxGeometry x="1564" y="87" width="120" height="80" as="geometry" />
        </mxCell>
        <mxCell id="42vEQWu17NEXKYtsey43-49" style="edgeStyle=orthogonalEdgeStyle;rounded=0;orthogonalLoop=1;jettySize=auto;html=1;" edge="1" parent="cEvRSIqXZ4WbzLf_VLH3-5" source="42vEQWu17NEXKYtsey43-47" target="42vEQWu17NEXKYtsey43-45">
          <mxGeometry relative="1" as="geometry" />
        </mxCell>
        <mxCell id="42vEQWu17NEXKYtsey43-47" value="" style="points=[[0.25,0.25,0],[0.5,0,0],[0.75,0.25,0],[1,0.5,0],[0.75,0.75,0],[0.5,1,0],[0.25,0.75,0],[0,0.5,0]];shape=mxgraph.bpmn.gateway2;html=1;verticalLabelPosition=bottom;labelBackgroundColor=#ffffff;verticalAlign=top;align=center;perimeter=rhombusPerimeter;outlineConnect=0;outline=none;symbol=none;gwType=exclusive;" vertex="1" parent="cEvRSIqXZ4WbzLf_VLH3-5">
          <mxGeometry x="1474" y="102" width="50" height="50" as="geometry" />
        </mxCell>
        <mxCell id="42vEQWu17NEXKYtsey43-59" style="edgeStyle=orthogonalEdgeStyle;rounded=0;orthogonalLoop=1;jettySize=auto;html=1;" edge="1" parent="cEvRSIqXZ4WbzLf_VLH3-5" source="42vEQWu17NEXKYtsey43-54">
          <mxGeometry relative="1" as="geometry">
            <mxPoint x="1958.5789473684213" y="127" as="targetPoint" />
          </mxGeometry>
        </mxCell>
        <mxCell id="42vEQWu17NEXKYtsey43-54" value="" style="points=[[0.25,0.25,0],[0.5,0,0],[0.75,0.25,0],[1,0.5,0],[0.75,0.75,0],[0.5,1,0],[0.25,0.75,0],[0,0.5,0]];shape=mxgraph.bpmn.gateway2;html=1;verticalLabelPosition=bottom;labelBackgroundColor=#ffffff;verticalAlign=top;align=center;perimeter=rhombusPerimeter;outlineConnect=0;outline=catching;symbol=multiple;" vertex="1" parent="cEvRSIqXZ4WbzLf_VLH3-5">
          <mxGeometry x="1809" y="102" width="50" height="50" as="geometry" />
        </mxCell>
        <mxCell id="42vEQWu17NEXKYtsey43-60" value="10 рабочих&lt;div&gt;дней&lt;/div&gt;" style="points=[[0.145,0.145,0],[0.5,0,0],[0.855,0.145,0],[1,0.5,0],[0.855,0.855,0],[0.5,1,0],[0.145,0.855,0],[0,0.5,0]];shape=mxgraph.bpmn.event;html=1;verticalLabelPosition=bottom;labelBackgroundColor=#ffffff;verticalAlign=top;align=center;perimeter=ellipsePerimeter;outlineConnect=0;aspect=fixed;outline=standard;symbol=timer;" vertex="1" parent="cEvRSIqXZ4WbzLf_VLH3-5">
          <mxGeometry x="1959" y="103" width="50" height="50" as="geometry" />
        </mxCell>
        <mxCell id="42vEQWu17NEXKYtsey43-61" value="Связаться с клиентом и уточнить&lt;div&gt;срок оплаты&lt;/div&gt;" style="points=[[0.25,0,0],[0.5,0,0],[0.75,0,0],[1,0.25,0],[1,0.5,0],[1,0.75,0],[0.75,1,0],[0.5,1,0],[0.25,1,0],[0,0.75,0],[0,0.5,0],[0,0.25,0]];shape=mxgraph.bpmn.task2;whiteSpace=wrap;rectStyle=rounded;size=10;html=1;container=1;expand=0;collapsible=0;taskMarker=user;fillColor=light-dark(#ffff00, #212100);strokeColor=#36393d;" vertex="1" parent="cEvRSIqXZ4WbzLf_VLH3-5">
          <mxGeometry x="2097" y="87" width="120" height="80" as="geometry" />
        </mxCell>
        <mxCell id="42vEQWu17NEXKYtsey43-62" style="edgeStyle=orthogonalEdgeStyle;rounded=0;orthogonalLoop=1;jettySize=auto;html=1;entryX=0;entryY=0.5;entryDx=0;entryDy=0;entryPerimeter=0;" edge="1" parent="cEvRSIqXZ4WbzLf_VLH3-5" source="42vEQWu17NEXKYtsey43-60" target="42vEQWu17NEXKYtsey43-61">
          <mxGeometry relative="1" as="geometry" />
        </mxCell>
        <mxCell id="42vEQWu17NEXKYtsey43-64" value="" style="edgeStyle=orthogonalEdgeStyle;rounded=0;orthogonalLoop=1;jettySize=auto;html=1;" edge="1" parent="cEvRSIqXZ4WbzLf_VLH3-5" source="42vEQWu17NEXKYtsey43-61" target="42vEQWu17NEXKYtsey43-65">
          <mxGeometry relative="1" as="geometry">
            <mxPoint x="2539.157894736842" y="1044" as="targetPoint" />
            <mxPoint x="2426" y="1044" as="sourcePoint" />
          </mxGeometry>
        </mxCell>
        <mxCell id="42vEQWu17NEXKYtsey43-73" style="edgeStyle=orthogonalEdgeStyle;rounded=0;orthogonalLoop=1;jettySize=auto;html=1;" edge="1" parent="cEvRSIqXZ4WbzLf_VLH3-5" source="42vEQWu17NEXKYtsey43-65" target="42vEQWu17NEXKYtsey43-72">
          <mxGeometry relative="1" as="geometry" />
        </mxCell>
        <mxCell id="42vEQWu17NEXKYtsey43-65" value="Клиент перенес срок?" style="points=[[0.25,0.25,0],[0.5,0,0],[0.75,0.25,0],[1,0.5,0],[0.75,0.75,0],[0.5,1,0],[0.25,0.75,0],[0,0.5,0]];shape=mxgraph.bpmn.gateway2;html=1;verticalLabelPosition=bottom;labelBackgroundColor=#ffffff;verticalAlign=top;align=center;perimeter=rhombusPerimeter;outlineConnect=0;outline=none;symbol=none;gwType=exclusive;" vertex="1" parent="cEvRSIqXZ4WbzLf_VLH3-5">
          <mxGeometry x="2301" y="103" width="50" height="50" as="geometry" />
        </mxCell>
        <mxCell id="42vEQWu17NEXKYtsey43-66" style="edgeStyle=orthogonalEdgeStyle;rounded=0;orthogonalLoop=1;jettySize=auto;html=1;entryX=0.5;entryY=0;entryDx=0;entryDy=0;entryPerimeter=0;" edge="1" parent="cEvRSIqXZ4WbzLf_VLH3-5" source="42vEQWu17NEXKYtsey43-65" target="42vEQWu17NEXKYtsey43-47">
          <mxGeometry relative="1" as="geometry">
            <Array as="points">
              <mxPoint x="2326" y="51" />
              <mxPoint x="1499" y="51" />
            </Array>
          </mxGeometry>
        </mxCell>
        <mxCell id="42vEQWu17NEXKYtsey43-70" value="" style="points=[[0.145,0.145,0],[0.5,0,0],[0.855,0.145,0],[1,0.5,0],[0.855,0.855,0],[0.5,1,0],[0.145,0.855,0],[0,0.5,0]];shape=mxgraph.bpmn.event;html=1;verticalLabelPosition=bottom;labelBackgroundColor=#ffffff;verticalAlign=top;align=center;perimeter=ellipsePerimeter;outlineConnect=0;aspect=fixed;outline=end;symbol=terminate2;fillColor=#ffcccc;strokeColor=#36393d;" vertex="1" parent="cEvRSIqXZ4WbzLf_VLH3-5">
          <mxGeometry x="2757" y="103" width="50" height="50" as="geometry" />
        </mxCell>
        <mxCell id="42vEQWu17NEXKYtsey43-74" style="edgeStyle=orthogonalEdgeStyle;rounded=0;orthogonalLoop=1;jettySize=auto;html=1;" edge="1" parent="cEvRSIqXZ4WbzLf_VLH3-5" source="42vEQWu17NEXKYtsey43-76" target="42vEQWu17NEXKYtsey43-70">
          <mxGeometry relative="1" as="geometry" />
        </mxCell>
        <mxCell id="42vEQWu17NEXKYtsey43-72" value="Зафиксировать&lt;div&gt;отказ&lt;/div&gt;&lt;div&gt;клиента&lt;/div&gt;" style="points=[[0.25,0,0],[0.5,0,0],[0.75,0,0],[1,0.25,0],[1,0.5,0],[1,0.75,0],[0.75,1,0],[0.5,1,0],[0.25,1,0],[0,0.75,0],[0,0.5,0],[0,0.25,0]];shape=mxgraph.bpmn.task2;whiteSpace=wrap;rectStyle=rounded;size=10;html=1;container=1;expand=0;collapsible=0;taskMarker=user;fillColor=light-dark(#ffff00, #212100);strokeColor=#36393d;" vertex="1" parent="cEvRSIqXZ4WbzLf_VLH3-5">
          <mxGeometry x="2497" y="87" width="120" height="80" as="geometry" />
        </mxCell>
        <mxCell id="42vEQWu17NEXKYtsey43-75" value="" style="edgeStyle=orthogonalEdgeStyle;rounded=0;orthogonalLoop=1;jettySize=auto;html=1;" edge="1" parent="cEvRSIqXZ4WbzLf_VLH3-5" source="42vEQWu17NEXKYtsey43-72" target="42vEQWu17NEXKYtsey43-76">
          <mxGeometry relative="1" as="geometry">
            <mxPoint x="2826" y="1044" as="sourcePoint" />
            <mxPoint x="2966" y="1045" as="targetPoint" />
          </mxGeometry>
        </mxCell>
        <mxCell id="42vEQWu17NEXKYtsey43-76" value="" style="points=[[0.25,0.25,0],[0.5,0,0],[0.75,0.25,0],[1,0.5,0],[0.75,0.75,0],[0.5,1,0],[0.25,0.75,0],[0,0.5,0]];shape=mxgraph.bpmn.gateway2;html=1;verticalLabelPosition=bottom;labelBackgroundColor=#ffffff;verticalAlign=top;align=center;perimeter=rhombusPerimeter;outlineConnect=0;outline=none;symbol=none;gwType=exclusive;" vertex="1" parent="cEvRSIqXZ4WbzLf_VLH3-5">
          <mxGeometry x="2655" y="103" width="50" height="50" as="geometry" />
        </mxCell>
        <mxCell id="cEvRSIqXZ4WbzLf_VLH3-42" value="Снабжение" style="swimlane;html=1;startSize=20;horizontal=0;" parent="cEvRSIqXZ4WbzLf_VLH3-2" vertex="1">
          <mxGeometry y="704" width="2924" height="181" as="geometry" />
        </mxCell>
        <mxCell id="cEvRSIqXZ4WbzLf_VLH3-67" value="Обеспечение и доставка" style="points=[[0.25,0,0],[0.5,0,0],[0.75,0,0],[1,0.25,0],[1,0.5,0],[1,0.75,0],[0.75,1,0],[0.5,1,0],[0.25,1,0],[0,0.75,0],[0,0.5,0],[0,0.25,0]];shape=mxgraph.bpmn.task2;whiteSpace=wrap;rectStyle=rounded;size=10;html=1;container=1;expand=0;collapsible=0;bpmnShapeType=call;isLoopSub=1;" parent="cEvRSIqXZ4WbzLf_VLH3-42" vertex="1">
          <mxGeometry x="2110" y="40" width="120" height="80" as="geometry" />
        </mxCell>
        <mxCell id="cEvRSIqXZ4WbzLf_VLH3-44" value="Бухгалтерия" style="swimlane;html=1;startSize=20;horizontal=0;" parent="cEvRSIqXZ4WbzLf_VLH3-2" vertex="1">
          <mxGeometry y="885" width="2924" height="181" as="geometry" />
        </mxCell>
        <mxCell id="42vEQWu17NEXKYtsey43-57" value="Оформить финансовые документы" style="points=[[0.25,0,0],[0.5,0,0],[0.75,0,0],[1,0.25,0],[1,0.5,0],[1,0.75,0],[0.75,1,0],[0.5,1,0],[0.25,1,0],[0,0.75,0],[0,0.5,0],[0,0.25,0]];shape=mxgraph.bpmn.task2;whiteSpace=wrap;rectStyle=rounded;size=10;html=1;container=1;expand=0;collapsible=0;taskMarker=user;fillColor=#FFFF00;strokeColor=#d6b656;" vertex="1" parent="cEvRSIqXZ4WbzLf_VLH3-44">
          <mxGeometry x="1888" y="48" width="120" height="80" as="geometry" />
        </mxCell>
        <mxCell id="42vEQWu17NEXKYtsey43-20" style="edgeStyle=orthogonalEdgeStyle;rounded=0;orthogonalLoop=1;jettySize=auto;html=1;" edge="1" parent="cEvRSIqXZ4WbzLf_VLH3-2" source="42vEQWu17NEXKYtsey43-9" target="42vEQWu17NEXKYtsey43-17">
          <mxGeometry relative="1" as="geometry" />
        </mxCell>
        <mxCell id="42vEQWu17NEXKYtsey43-52" style="edgeStyle=orthogonalEdgeStyle;rounded=0;orthogonalLoop=1;jettySize=auto;html=1;exitX=0.5;exitY=1;exitDx=0;exitDy=0;exitPerimeter=0;entryX=0;entryY=0.5;entryDx=0;entryDy=0;entryPerimeter=0;" edge="1" parent="cEvRSIqXZ4WbzLf_VLH3-2" source="42vEQWu17NEXKYtsey43-54" target="42vEQWu17NEXKYtsey43-57">
          <mxGeometry relative="1" as="geometry">
            <mxPoint x="1828" y="1329" as="targetPoint" />
            <mxPoint x="1828" y="922" as="sourcePoint" />
          </mxGeometry>
        </mxCell>
        <mxCell id="42vEQWu17NEXKYtsey43-56" value="Оплата прошла" style="edgeLabel;html=1;align=center;verticalAlign=middle;resizable=0;points=[];" vertex="1" connectable="0" parent="42vEQWu17NEXKYtsey43-52">
          <mxGeometry x="-0.6745" y="2" relative="1" as="geometry">
            <mxPoint as="offset" />
          </mxGeometry>
        </mxCell>
        <mxCell id="42vEQWu17NEXKYtsey43-58" style="edgeStyle=orthogonalEdgeStyle;rounded=0;orthogonalLoop=1;jettySize=auto;html=1;entryX=0;entryY=0.5;entryDx=0;entryDy=0;entryPerimeter=0;" edge="1" parent="cEvRSIqXZ4WbzLf_VLH3-2" source="42vEQWu17NEXKYtsey43-57" target="cEvRSIqXZ4WbzLf_VLH3-67">
          <mxGeometry relative="1" as="geometry" />
        </mxCell>
        <mxCell id="42vEQWu17NEXKYtsey43-77" style="edgeStyle=orthogonalEdgeStyle;rounded=0;orthogonalLoop=1;jettySize=auto;html=1;" edge="1" parent="cEvRSIqXZ4WbzLf_VLH3-2" source="cEvRSIqXZ4WbzLf_VLH3-67" target="42vEQWu17NEXKYtsey43-76">
          <mxGeometry relative="1" as="geometry" />
        </mxCell>
      </root>
    </mxGraphModel>
  </diagram>
</mxfile>
